<svg width="64" height="64" viewBox="0 0 64 64" fill="#808080" xmlns="http://www.w3.org/2000/svg">
<path fill-rule="evenodd" clip-rule="evenodd" d="M58.6667 13.3334V50.6667C58.6667 55.085 55.085 58.6667 50.6667 58.6667H13.3334C8.9151 58.6667 5.33337 55.085 5.33337 50.6667V13.3334C5.33337 8.9151 8.9151 5.33337 13.3334 5.33337H50.6667C55.085 5.33337 58.6667 8.9151 58.6667 13.3334ZM26 18.1067C28.2347 16.2808 31.1801 15.5739 34 16.1867L34.0267 16.1067C38.1502 16.9906 41.1734 20.5229 41.4101 24.7335C41.6468 28.944 39.0385 32.7929 35.04 34.1334C34.0328 34.6505 33.3811 35.6688 33.3334 36.8V37.3334C33.3334 38.8061 32.1395 40 30.6667 40C29.1939 40 28 38.8061 28 37.3334V36.72C28.0749 33.3278 30.1769 30.3114 33.3334 29.0667C35.0708 28.5135 36.2142 26.8554 36.1138 25.0349C36.0134 23.2143 34.6944 21.692 32.9067 21.3334C31.6394 21.0625 30.3182 21.3977 29.3334 22.24C28.4125 23.0021 27.8837 24.1382 27.8934 25.3334C27.8934 26.8061 26.6995 28 25.2267 28C23.7539 28 22.56 26.8061 22.56 25.3334C22.5517 22.5275 23.817 19.8695 26 18.1067ZM33.44 45.5467C33.4334 45.1899 33.3611 44.8373 33.2267 44.5067C33.1052 44.1625 32.9042 43.8519 32.64 43.6C31.5999 42.5661 29.9201 42.5661 28.88 43.6C28.6306 43.8434 28.4313 44.1333 28.2934 44.4534C28.1669 44.7854 28.1036 45.1381 28.1067 45.4934C28.1165 46.1994 28.3928 46.8757 28.88 47.3867C29.3833 47.8859 30.0646 48.1641 30.7734 48.16H31.28L31.7867 48C31.9459 47.9363 32.0978 47.8558 32.24 47.76L32.64 47.44C33.149 46.9412 33.4371 46.2594 33.44 45.5467ZM50.6667 10.6667C52.1395 10.6667 53.3334 11.8606 53.3334 13.3334V50.6667C53.3334 52.1395 52.1395 53.3334 50.6667 53.3334H13.3334C11.8606 53.3334 10.6667 52.1395 10.6667 50.6667V13.3334C10.6667 11.8606 11.8606 10.6667 13.3334 10.6667H50.6667Z"/>
</svg>
